<svg height="512pt" viewBox="0 -8 512 512" width="512pt" xmlns="http://www.w3.org/2000/svg"><path d="m247.988281 344.585938h16.027344v15.15625h-16.027344zm0 0"/><path d="m167.851562 192.328125h16.027344v15.15625h-16.027344zm0 0"/><path d="m47.210938 175.863281h-15.15625v-143.808593h39.632812v15.15625h-24.476562zm0 0"/><path d="m32.054688 223.945312h15.15625v16.027344h-15.15625zm0 0"/><path d="m496.84375 304.519531h-328.992188v15.152344h328.992188v64.980469h-56.53125v15.15625h71.6875v-288.054688h-15.15625zm0 0"/><path d="m0 0v399.808594h176.300781v48.953125h-32.054687v47.210937h127.78125v-15.15625h-112.625v-16.898437h193.199218v16.898437h-56.53125v15.15625h71.6875v-47.210937h-32.058593v-48.953125h80.574219v-15.15625h-401.117188v-64.980469h128.652344v-15.152344h-128.652344v-289.363281h481.6875v72.558594h15.15625v-87.714844zm320.542969 399.808594v48.953125h-129.085938v-48.953125zm0 0"/><path d="m263.578125 72.121094h-175.429687v175.429687h175.429687zm-104.175781 63.238281h32.925781v16.898437h-32.925781zm32.925781-48.082031v32.925781h-32.925781v-32.925781zm56.09375 145.117187h-145.117187v-145.117187h40.941406v80.136718h63.238281v-80.136718h40.9375zm0 0"/><path d="m135.796875 192.328125h16.027344v15.15625h-16.027344zm0 0"/><path d="m199.90625 192.328125h16.027344v15.15625h-16.027344zm0 0"/><path d="m360.179688 245.777344 39.371093-60.039063c15.242188-11.984375 24.300781-30.546875 24.300781-49.941406 0-35.113281-28.5625-63.675781-63.671874-63.675781-35.113282 0-63.675782 28.5625-63.675782 63.675781 0 19.394531 9.058594 37.957031 24.300782 49.941406zm-48.519532-109.980469c0-26.753906 21.765625-48.519531 48.519532-48.519531 26.75 0 48.515624 21.765625 48.515624 48.519531 0 15.109375-7.226562 29.558594-19.332031 38.65625l-1.058593.796875-28.125 42.890625-28.128907-42.890625-1.058593-.796875c-12.105469-9.097656-19.332032-23.546875-19.332032-38.65625zm0 0"/><path d="m360.179688 167.414062c17.433593 0 31.617187-14.183593 31.617187-31.617187s-14.183594-31.617187-31.617187-31.617187c-17.4375 0-31.621094 14.183593-31.621094 31.617187s14.183594 31.617187 31.621094 31.617187zm0-48.082031c9.074218 0 16.460937 7.386719 16.460937 16.464844 0 9.074219-7.386719 16.460937-16.460937 16.460937-9.078126 0-16.464844-7.386718-16.464844-16.460937 0-9.078125 7.386718-16.464844 16.464844-16.464844zm0 0"/><path d="m32.054688 191.890625h15.15625v16.027344h-15.15625zm0 0"/><path d="m464.789062 239.972656v32.492188h-32.488281v15.152344h47.644531v-47.644532zm0 0"/></svg>